<svg xmlns="http://www.w3.org/2000/svg" viewBox="0 0 64 64" role="img" aria-labelledby="title">
  <title id="title">AxéCloud</title>
  <rect width="64" height="64" rx="15" fill="#F7F2E8"/>
  <g transform="translate(0 1)">
    <defs><clipPath id="body"><path d="M15.5 14.5c.2 12.8 1.6 28.7 6.2 40.1 6.3 3.4 14.3 3.4 20.6 0 4.6-11.4 6-27.3 6.2-40.1Z"/></clipPath><linearGradient id="forest" x1="16" y1="18" x2="47" y2="54" gradientUnits="userSpaceOnUse"><stop stop-color="#0E1512"/><stop offset="1" stop-color="#214331"/></linearGradient></defs>
    <path d="M15.5 14.5c.2 12.8 1.6 28.7 6.2 40.1 6.3 3.4 14.3 3.4 20.6 0 4.6-11.4 6-27.3 6.2-40.1Z" fill="url(#forest)"/><path d="M16.8 25.2c9.7 4 20.7 4 30.4 0v10.2c-9.7 4.1-20.7 4.1-30.4 0Z" fill="#F7C928" clip-path="url(#body)"/>
    <path d="M20.4 24.1c7.5 3.2 15.7 3.2 23.2 0M19.6 35.2c8 3.6 16.8 3.6 24.8 0M21.5 45.1c6.7 3 14.3 3 21 0" fill="none" stroke="#F7F2E8" stroke-width="2.5" stroke-linecap="round"/>
    <path d="m20.4 24.1 11.5 12.3-10.4 8.7" fill="none" stroke="#F7F2E8" stroke-width="2.5" stroke-linecap="round" stroke-linejoin="round"/>
    <g fill="#F7F2E8"><circle cx="20.4" cy="24.1" r="2.3"/><circle cx="43.6" cy="24.1" r="2.3"/><circle cx="19.6" cy="35.2" r="2.3"/><circle cx="31.9" cy="36.4" r="2.4"/><circle cx="44.4" cy="35.2" r="2.3"/><circle cx="21.5" cy="45.1" r="2.3"/><circle cx="42.5" cy="45.1" r="2.3"/></g>
    <ellipse cx="32" cy="14.2" rx="17.7" ry="7.1" fill="#F7F2E8"/><ellipse cx="32" cy="13.3" rx="16.4" ry="6" fill="#F7C928"/>
  </g>
</svg>
